<svg xmlns="http://www.w3.org/2000/svg" xmlns:xlink="http://www.w3.org/1999/xlink" width="500" zoomAndPan="magnify" viewBox="0 0 375 374.999991" height="500" preserveAspectRatio="xMidYMid meet" version="1.0"><defs><g/><clipPath id="354ec48cb9"><path d="M 0 6.566406 L 375 6.566406 L 375 368.433594 L 0 368.433594 Z M 0 6.566406 " clip-rule="nonzero"/></clipPath><clipPath id="daf7ac306e"><path d="M 17.25 6.566406 L 357.75 6.566406 C 367.277344 6.566406 375 14.289062 375 23.816406 L 375 351.183594 C 375 360.710938 367.277344 368.433594 357.75 368.433594 L 17.25 368.433594 C 7.722656 368.433594 0 360.710938 0 351.183594 L 0 23.816406 C 0 14.289062 7.722656 6.566406 17.25 6.566406 Z M 17.25 6.566406 " clip-rule="nonzero"/></clipPath><clipPath id="052e234437"><path d="M 0 0.566406 L 375 0.566406 L 375 362.433594 L 0 362.433594 Z M 0 0.566406 " clip-rule="nonzero"/></clipPath><clipPath id="d01842f992"><path d="M 17.25 0.566406 L 357.75 0.566406 C 367.277344 0.566406 375 8.289062 375 17.816406 L 375 345.183594 C 375 354.710938 367.277344 362.433594 357.75 362.433594 L 17.25 362.433594 C 7.722656 362.433594 0 354.710938 0 345.183594 L 0 17.816406 C 0 8.289062 7.722656 0.566406 17.25 0.566406 Z M 17.25 0.566406 " clip-rule="nonzero"/></clipPath><clipPath id="53d08f1b35"><rect x="0" width="375" y="0" height="363"/></clipPath></defs><g clip-path="url(#354ec48cb9)"><g clip-path="url(#daf7ac306e)"><g transform="matrix(1, 0, 0, 1, 0, 6)"><g clip-path="url(#53d08f1b35)"><g clip-path="url(#052e234437)"><g clip-path="url(#d01842f992)"><path fill="#f8f442" d="M 0 0.566406 L 374.59375 0.566406 L 374.59375 362.433594 L 0 362.433594 Z M 0 0.566406 " fill-opacity="1" fill-rule="nonzero"/></g></g></g></g></g></g><g fill="#000000" fill-opacity="1"><g transform="translate(0.230466, 274.124978)"><g><path d="M 43.613281 0 C 37.84375 0 32.554688 -1.417969 27.746094 -4.25 C 22.9375 -7.085938 19.117188 -10.90625 16.28125 -15.714844 C 13.445312 -20.523438 12.03125 -25.8125 12.03125 -31.578125 L 12.03125 -44.023438 L 41.960938 -44.023438 L 41.960938 -32.832031 C 41.960938 -32.078125 42.226562 -31.433594 42.765625 -30.894531 C 43.308594 -30.351562 43.953125 -30.082031 44.703125 -30.082031 L 142.273438 -30.082031 C 143.027344 -30.082031 143.671875 -30.351562 144.210938 -30.894531 C 144.753906 -31.433594 145.023438 -32.078125 145.023438 -32.832031 L 145.023438 -63.863281 C 145.023438 -64.613281 144.753906 -65.246094 144.210938 -65.761719 C 143.671875 -66.28125 143.027344 -66.539062 142.273438 -66.539062 L 43.613281 -66.539062 C 37.84375 -66.539062 32.554688 -67.96875 27.746094 -70.824219 C 22.9375 -73.683594 19.117188 -77.496094 16.28125 -82.253906 C 13.445312 -87.015625 12.03125 -92.304688 12.03125 -98.121094 L 12.03125 -131.652344 C 12.03125 -137.421875 13.445312 -142.707031 16.28125 -147.515625 C 19.117188 -152.320312 22.9375 -156.144531 27.746094 -158.976562 C 32.554688 -161.8125 37.84375 -163.230469 43.613281 -163.230469 L 143.679688 -163.230469 C 149.410156 -163.230469 154.664062 -161.8125 159.4375 -158.976562 C 164.210938 -156.144531 168.042969 -152.320312 170.929688 -147.515625 C 173.816406 -142.707031 175.261719 -137.421875 175.261719 -131.652344 L 175.261719 -119.207031 L 145.023438 -119.207031 L 145.023438 -130.402344 C 145.023438 -131.152344 144.753906 -131.796875 144.210938 -132.339844 C 143.671875 -132.878906 143.027344 -133.148438 142.273438 -133.148438 L 44.703125 -133.148438 C 43.953125 -133.148438 43.308594 -132.878906 42.765625 -132.339844 C 42.226562 -131.796875 41.960938 -131.152344 41.960938 -130.402344 L 41.960938 -99.371094 C 41.960938 -98.617188 42.226562 -97.984375 42.765625 -97.46875 C 43.308594 -96.949219 43.953125 -96.691406 44.703125 -96.691406 L 143.679688 -96.691406 C 149.410156 -96.691406 154.664062 -95.261719 159.4375 -92.402344 C 164.210938 -89.542969 168.042969 -85.734375 170.929688 -80.972656 C 173.816406 -76.214844 175.261719 -70.929688 175.261719 -65.113281 L 175.261719 -31.578125 C 175.261719 -25.8125 173.816406 -20.523438 170.929688 -15.714844 C 168.042969 -10.90625 164.210938 -7.085938 159.4375 -4.25 C 154.664062 -1.417969 149.410156 0 143.679688 0 Z M 43.613281 0 "/></g></g></g><g fill="#000000" fill-opacity="1"><g transform="translate(187.492591, 274.124978)"><g><path d="M 43.613281 0 C 37.84375 0 32.554688 -1.417969 27.746094 -4.25 C 22.9375 -7.085938 19.117188 -10.90625 16.28125 -15.714844 C 13.445312 -20.523438 12.03125 -25.8125 12.03125 -31.578125 L 12.03125 -44.023438 L 41.960938 -44.023438 L 41.960938 -32.832031 C 41.960938 -32.078125 42.226562 -31.433594 42.765625 -30.894531 C 43.308594 -30.351562 43.953125 -30.082031 44.703125 -30.082031 L 142.273438 -30.082031 C 143.027344 -30.082031 143.671875 -30.351562 144.210938 -30.894531 C 144.753906 -31.433594 145.023438 -32.078125 145.023438 -32.832031 L 145.023438 -63.863281 C 145.023438 -64.613281 144.753906 -65.246094 144.210938 -65.761719 C 143.671875 -66.28125 143.027344 -66.539062 142.273438 -66.539062 L 43.613281 -66.539062 C 37.84375 -66.539062 32.554688 -67.96875 27.746094 -70.824219 C 22.9375 -73.683594 19.117188 -77.496094 16.28125 -82.253906 C 13.445312 -87.015625 12.03125 -92.304688 12.03125 -98.121094 L 12.03125 -131.652344 C 12.03125 -137.421875 13.445312 -142.707031 16.28125 -147.515625 C 19.117188 -152.320312 22.9375 -156.144531 27.746094 -158.976562 C 32.554688 -161.8125 37.84375 -163.230469 43.613281 -163.230469 L 143.679688 -163.230469 C 149.410156 -163.230469 154.664062 -161.8125 159.4375 -158.976562 C 164.210938 -156.144531 168.042969 -152.320312 170.929688 -147.515625 C 173.816406 -142.707031 175.261719 -137.421875 175.261719 -131.652344 L 175.261719 -119.207031 L 145.023438 -119.207031 L 145.023438 -130.402344 C 145.023438 -131.152344 144.753906 -131.796875 144.210938 -132.339844 C 143.671875 -132.878906 143.027344 -133.148438 142.273438 -133.148438 L 44.703125 -133.148438 C 43.953125 -133.148438 43.308594 -132.878906 42.765625 -132.339844 C 42.226562 -131.796875 41.960938 -131.152344 41.960938 -130.402344 L 41.960938 -99.371094 C 41.960938 -98.617188 42.226562 -97.984375 42.765625 -97.46875 C 43.308594 -96.949219 43.953125 -96.691406 44.703125 -96.691406 L 143.679688 -96.691406 C 149.410156 -96.691406 154.664062 -95.261719 159.4375 -92.402344 C 164.210938 -89.542969 168.042969 -85.734375 170.929688 -80.972656 C 173.816406 -76.214844 175.261719 -70.929688 175.261719 -65.113281 L 175.261719 -31.578125 C 175.261719 -25.8125 173.816406 -20.523438 170.929688 -15.714844 C 168.042969 -10.90625 164.210938 -7.085938 159.4375 -4.25 C 154.664062 -1.417969 149.410156 0 143.679688 0 Z M 43.613281 0 "/></g></g></g></svg>